<svg width="271px" height="436px" viewBox="0 0 271 436" version="1.1" xmlns="http://www.w3.org/2000/svg" xmlns:xlink="http://www.w3.org/1999/xlink">
    <!-- Generator: Sketch 51.2 (57519) - http://www.bohemiancoding.com/sketch -->
    <desc>Created with Sketch.</desc>
    <defs></defs>
    <g id="Page-1" stroke="none" stroke-width="1" fill="none" fill-rule="evenodd" stroke-opacity="0.8">
        <g id="Home" transform="translate(-104.000000, -1000.000000)" stroke="#224CB2" stroke-width="3">
            <g id="Group-19" transform="translate(252.000000, 1211.000000) rotate(27.000000) translate(-252.000000, -1211.000000) translate(195.000000, 983.000000)" stroke-linecap="round" stroke-linejoin="round">
                <path d="M33.245614,41 C33.245614,41 29.7368421,37.1538462 31.4912281,29.4615385 C33.245614,21.7692308 35,16 35,16" id="Stroke-1"></path>
                <path d="M57.9558044,11.707458 C69.4254575,11.707458 73.2486752,13.6587009 73.2486752,13.6587009 C76.1160885,15.1221332 77.9091776,15.2138416 79.0274688,14.7552995 C80.8951106,13.9943147 80.8951106,11.707458 80.8951106,11.707458 C82.8067195,0 57.9558044,0 57.9558044,0 L56.0441956,0 C56.0441956,0 31.1932805,0 33.1048894,11.707458 C33.1048894,11.707458 33.1048894,13.9943147 34.9725312,14.7552995 C36.0908224,15.2138416 37.8839115,15.1221332 40.7513248,13.6587009 C40.7513248,13.6587009 44.5745425,11.707458 56.0441956,11.707458 L57.9558044,11.707458 Z" id="Stroke-3"></path>
                <path d="M80.754386,41 C80.754386,41 84.2631579,37.1538462 82.5087719,29.4615385 C80.754386,21.7692308 79,16 79,16" id="Stroke-5"></path>
                <path d="M77,38 C69.3809524,30 57.952381,30 57.952381,30 L56.047619,30 C56.047619,30 44.6190476,30 37,38" id="Stroke-7"></path>
                <path d="M76,43 C70.1578947,45 58.4736842,45 58.4736842,45 L56.5263158,45 C56.5263158,45 44.8421053,45 39,43" id="Stroke-9"></path>
                <path d="M81.1525424,41 L86.9491525,137.962617 C86.9491525,137.962617 86.9491525,147.658879 98.5423729,159.294393 C110.135593,170.929907 112.067797,184.504673 112.067797,184.504673 L112.067797,374.551402 C112.067797,374.551402 114,384.247664 110.135593,388.126168 L110.135593,403.640187 C110.135593,403.640187 114,403.640187 114,421.093458 C114,438.546729 108.20339,448.242991 108.20339,448.242991 L104.338983,454.060748 C104.338983,454.060748 71.4915254,456 57.9661017,456 L56.0338983,456 C42.5084746,456 9.66101695,454.060748 9.66101695,454.060748 L5.79661017,448.242991 C5.79661017,448.242991 0,438.546729 0,421.093458 C0,403.640187 3.86440678,403.640187 3.86440678,403.640187 L3.86440678,388.126168 C0,384.247664 1.93220339,374.551402 1.93220339,374.551402 L1.93220339,184.504673 C1.93220339,184.504673 3.86440678,170.929907 15.4576271,159.294393 C27.0508475,147.658879 27.0508475,137.962617 27.0508475,137.962617 L32.8474576,41" id="Stroke-11"></path>
                <polyline id="Stroke-13" points="107 403 58.4705882 403 56.5294118 403 8 403"></polyline>
                <path d="M107,388 C107,388 101.176471,386 58.4705882,386 L56.5294118,386 C13.8235294,386 8,388 8,388" id="Stroke-15"></path>
                <path d="M83.4947692,359.944749 C65.878359,358.148208 48.1235897,358.148208 30.5071795,359.944749 C24.3511795,360.572666 19,355.768325 19,349.615124 L19,195.16688 C19,190.236568 22.4862564,185.984561 27.3444103,184.994235 C46.9114872,181.001922 67.0904615,181.001922 86.6575385,184.994235 C91.5137436,185.984561 95,190.236568 95,195.16688 L95,349.615124 C95,355.768325 89.6488205,360.572666 83.4947692,359.944749 Z" id="Stroke-17"></path>
            </g>
            <text id="Tripel" transform="translate(232.633154, 1249.970055) rotate(-62.000000) translate(-232.633154, -1249.970055) " font-family="Poppins-Bold, Poppins" font-size="36" font-weight="bold" letter-spacing="0.02624999" fill="#224CB2" fill-opacity="0">
                <tspan x="178.133154" y="1260.47005">Tripel</tspan>
            </text>
        </g>
    </g>
</svg>
