
<svg width="858px" height="983px" viewBox="0 0 858 983" version="1.1" xmlns="http://www.w3.org/2000/svg" xmlns:xlink="http://www.w3.org/1999/xlink">
    <!-- Generator: Sketch 51.2 (57519) - http://www.bohemiancoding.com/sketch -->
    <desc>Created with Sketch.</desc>
    <defs></defs>
    <g id="Page-1" stroke="none" stroke-width="1" fill="none" fill-rule="evenodd">
        <g id="Home" transform="translate(-582.000000, -19.000000)">
            <g id="Group-46" transform="translate(584.000000, -40.000000)">
                <polygon id="Stroke-1" stroke-opacity="0.8" stroke="#224CB2" stroke-width="3" stroke-linecap="round" stroke-linejoin="round" points="711 1005 770 1005 770 785 711 785"></polygon>
                <g id="Group-2" stroke="#224CB2" stroke-dasharray="30,50,3,20" stroke-linecap="round" stroke-linejoin="round" stroke-opacity="0.8" stroke-width="3">
                    <path d="M113.361964,497.037147 C336.305611,497.037147 517.037147,316.305611 517.037147,93.3619636" id="Oval-94" transform="translate(315.199555, 295.199555) rotate(-105.000000) translate(-315.199555, -295.199555) "></path>
                    <path d="M175.823252,420.498435 C398.7669,420.498435 579.498435,239.7669 579.498435,16.8232522" id="Oval-94-Copy" transform="translate(377.660844, 218.660844) rotate(-85.000000) translate(-377.660844, -218.660844) "></path>
                    <path d="M81.3619636,589.037147 C304.305611,589.037147 485.037147,408.305611 485.037147,185.361964" id="Oval-94-Copy-2" transform="translate(283.199555, 387.199555) rotate(-125.000000) translate(-283.199555, -387.199555) "></path>
                    <path d="M79.3619636,688.037147 C302.305611,688.037147 483.037147,507.305611 483.037147,284.361964" id="Oval-94-Copy-4" transform="translate(281.199555, 486.199555) rotate(-145.000000) translate(-281.199555, -486.199555) "></path>
                    <path d="M113.361964,781.037147 C336.305611,781.037147 517.037147,600.305611 517.037147,377.361964" id="Oval-94-Copy-5" transform="translate(315.199555, 579.199555) rotate(-165.000000) translate(-315.199555, -579.199555) "></path>
                </g>
                <g id="Group-2-Copy" transform="translate(826.500000, 413.500000) scale(-1, 1) translate(-826.500000, -413.500000) translate(528.000000, 0.000000)" stroke="#224CB2" stroke-dasharray="30,50,3,20" stroke-linecap="round" stroke-linejoin="round" stroke-opacity="0.8" stroke-width="3">
                    <path d="M113.361964,497.037147 C336.305611,497.037147 517.037147,316.305611 517.037147,93.3619636" id="Oval-94" transform="translate(315.199555, 295.199555) rotate(-105.000000) translate(-315.199555, -295.199555) "></path>
                    <path d="M175.823252,420.498435 C398.7669,420.498435 579.498435,239.7669 579.498435,16.8232522" id="Oval-94-Copy" transform="translate(377.660844, 218.660844) rotate(-85.000000) translate(-377.660844, -218.660844) "></path>
                    <path d="M81.3619636,589.037147 C304.305611,589.037147 485.037147,408.305611 485.037147,185.361964" id="Oval-94-Copy-2" transform="translate(283.199555, 387.199555) rotate(-125.000000) translate(-283.199555, -387.199555) "></path>
                    <path d="M79.3619636,688.037147 C302.305611,688.037147 483.037147,507.305611 483.037147,284.361964" id="Oval-94-Copy-4" transform="translate(281.199555, 486.199555) rotate(-145.000000) translate(-281.199555, -486.199555) "></path>
                    <path d="M113.361964,781.037147 C336.305611,781.037147 517.037147,600.305611 517.037147,377.361964" id="Oval-94-Copy-5" transform="translate(315.199555, 579.199555) rotate(-165.000000) translate(-315.199555, -579.199555) "></path>
                </g>
                <g id="Group-45" transform="translate(262.000000, 164.000000)">
                    <path d="M495.190141,620.704545 L461.330986,620.704545 C449.691901,620.704545 440.169014,609.441761 440.169014,595.676136 C440.169014,581.910511 449.691901,570.647727 461.330986,570.647727 L495.190141,570.647727 C506.829225,570.647727 516.352113,581.910511 516.352113,595.676136 C516.352113,609.441761 506.829225,620.704545 495.190141,620.704545 Z" id="Stroke-2" stroke-opacity="0.8" stroke="#224CB2" stroke-width="3" stroke-linecap="round" stroke-linejoin="round"></path>
                    <path d="M435.93662,655.744318 L520.584507,655.744318" id="Stroke-4" stroke-opacity="0.8" stroke="#224CB2" stroke-width="3" stroke-linecap="round" stroke-linejoin="round"></path>
                    <polygon id="Clip-7" points="0 881 601 881 601 0 0 0"></polygon>
                    <polygon id="Stroke-6" stroke-opacity="0.8" stroke="#224CB2" stroke-width="3" stroke-linecap="round" stroke-linejoin="round" points="338.591549 725.823864 397.84507 725.823864 397.84507 620.704545 338.591549 620.704545"></polygon>
                    <path d="M385.147887,620.704545 L351.288732,620.704545 C339.649648,620.704545 330.126761,609.441761 330.126761,595.676136 C330.126761,581.910511 339.649648,570.647727 351.288732,570.647727 L385.147887,570.647727 C396.786972,570.647727 406.309859,581.910511 406.309859,595.676136 C406.309859,609.441761 396.786972,620.704545 385.147887,620.704545 Z" id="Stroke-8" stroke-opacity="0.8" stroke="#224CB2" stroke-width="3" stroke-linecap="round" stroke-linejoin="round"></path>
                    <path d="M325.894366,655.744318 L410.542254,655.744318" id="Stroke-9" stroke-opacity="0.8" stroke="#224CB2" stroke-width="3" stroke-linecap="round" stroke-linejoin="round"></path>
                    <path d="M321.661972,875.994318 L321.661972,825.9375 C321.661972,806.585534 334.926296,790.897727 351.288732,790.897727 C367.651169,790.897727 380.915493,806.585534 380.915493,825.9375 L380.915493,875.994318" id="Stroke-10" stroke-opacity="0.8" stroke="#224CB2" stroke-width="3" stroke-linecap="round" stroke-linejoin="round"></path>
                    <path d="M529.049296,565.642045 L596.767606,565.642045" id="Stroke-11" stroke-opacity="0.8" stroke="#224CB2" stroke-width="3" stroke-linecap="round" stroke-linejoin="round"></path>
                    <path d="M523.841758,465.528409 L500.394293,465.528409 C492.843701,465.528409 486.723659,458.290193 486.723659,449.360057 L486.723659,431.639943 C486.723659,422.709807 492.843701,415.471591 500.394293,415.471591 L523.841758,415.471591 C531.400814,415.471591 537.512392,422.709807 537.512392,431.639943 L537.512392,449.360057 C537.512392,458.290193 531.400814,465.528409 523.841758,465.528409 Z" id="Stroke-12" stroke-opacity="0.8" stroke="#224CB2" stroke-width="3" stroke-linecap="round" stroke-linejoin="round"></path>
                    <path d="M596.767606,445.505682 L537.514085,445.505682" id="Stroke-13" stroke-opacity="0.8" stroke="#224CB2" stroke-width="3" stroke-linecap="round" stroke-linejoin="round"></path>
                    <path d="M486.725352,445.505682 L410.542254,445.505682" id="Stroke-14" stroke-opacity="0.8" stroke="#224CB2" stroke-width="3" stroke-linecap="round" stroke-linejoin="round"></path>
                    <path d="M512.119718,365.414773 L512.119718,415.471591" id="Stroke-15" stroke-opacity="0.8" stroke="#224CB2" stroke-width="3" stroke-linecap="round" stroke-linejoin="round"></path>
                    <path d="M400.325254,385.4375 L378.43531,385.4375 C372.789296,385.4375 368.21831,380.021352 368.21831,373.353784 L368.21831,337.453034 C368.21831,330.785466 372.789296,325.369318 378.43531,325.369318 L400.325254,325.369318 C405.971268,325.369318 410.542254,330.785466 410.542254,337.453034 L410.542254,373.353784 C410.542254,380.021352 405.971268,385.4375 400.325254,385.4375 Z" id="Stroke-16" stroke-opacity="0.8" stroke="#224CB2" stroke-width="3" stroke-linecap="round" stroke-linejoin="round"></path>
                    <path d="M393.612676,385.4375 L393.612676,435.494318" id="Stroke-17" stroke-opacity="0.8" stroke="#224CB2" stroke-width="3" stroke-linecap="round" stroke-linejoin="round"></path>
                    <path d="M325.894366,335.380682 L368.21831,335.380682" id="Stroke-18" stroke-opacity="0.8" stroke="#224CB2" stroke-width="3" stroke-linecap="round" stroke-linejoin="round"></path>
                    <polygon id="Stroke-19" stroke-opacity="0.8" stroke="#224CB2" stroke-width="3" stroke-linecap="round" stroke-linejoin="round" points="93.1126761 840.954545 152.366197 840.954545 152.366197 620.704545 93.1126761 620.704545"></polygon>
                    <path d="M105.809859,620.704545 L139.669014,620.704545 C151.308099,620.704545 160.830986,609.441761 160.830986,595.676136 C160.830986,581.910511 151.308099,570.647727 139.669014,570.647727 L105.809859,570.647727 C94.1707746,570.647727 84.6478873,581.910511 84.6478873,595.676136 C84.6478873,609.441761 94.1707746,620.704545 105.809859,620.704545 Z" id="Stroke-20" stroke-opacity="0.8" stroke="#224CB2" stroke-width="3" stroke-linecap="round" stroke-linejoin="round"></path>
                    <path d="M165.06338,655.744318 L80.415493,655.744318" id="Stroke-21" stroke-opacity="0.8" stroke="#224CB2" stroke-width="3" stroke-linecap="round" stroke-linejoin="round"></path>
                    <polyline id="Stroke-43" stroke-opacity="0.8" stroke="#224CB2" stroke-width="3" fill="#FFFFFF" stroke-linecap="round" stroke-linejoin="round" points="275.105634 115.130682 275.105634 65.0738636 298.383803 65.0738636 302.616197 65.0738636 325.894366 65.0738636 325.894366 115.130682"></polyline>
                    <polyline id="Stroke-42" stroke-opacity="0.8" stroke="#224CB2" stroke-width="3" fill="#FFFFFF" stroke-linecap="round" stroke-linejoin="round" points="241.246479 145.164773 292.035211 95.1079545 308.964789 95.1079545 359.753521 145.164773"></polyline>
                    <polyline id="Stroke-41" stroke-opacity="0.8" stroke="#224CB2" stroke-width="3" fill="#FFFFFF" stroke-linecap="round" stroke-linejoin="round" points="241.246479 225.255682 241.246479 145.164773 248.957901 145.164773 298.383803 145.164773 302.616197 145.164773 352.042099 145.164773 359.753521 145.164773 359.753521 225.255682"></polyline>
                    <polyline id="Stroke-40" stroke-opacity="0.8" stroke="#224CB2" stroke-width="3" fill="#FFFFFF" stroke-linecap="round" stroke-linejoin="round" points="224.316901 325.369318 224.316901 225.255682 241.246479 225.255682 300.5 175.198864 359.753521 225.255682 376.683099 225.255682 376.683099 325.369318"></polyline>
                    <path d="M275.105634,371.764981 L275.105634,332.790742 C275.105634,328.696094 277.915944,325.372322 281.378042,325.372322 L296.267606,325.372322 L304.732394,325.372322 L319.621958,325.372322 C323.084056,325.372322 325.894366,328.696094 325.894366,332.790742 L325.894366,371.764981" id="Stroke-37" stroke-opacity="0.8" stroke="#224CB2" stroke-width="3" fill="#FFFFFF" stroke-linecap="round" stroke-linejoin="round"></path>
                    <polyline id="Stroke-23" stroke-opacity="0.8" stroke="#224CB2" stroke-width="3" fill="#FFFFFF" stroke-linecap="round" stroke-linejoin="round" points="97.5025155 530.602273 298.998346 350.397727 302.003346 350.397727 503.499177 530.602273"></polyline>
                    <polygon id="Stroke-22" stroke-opacity="0.8" stroke="#224CB2" stroke-width="3" stroke-linecap="round" stroke-linejoin="round" points="292.035211 570.647727 76.1830986 570.647727 76.1830986 530.602273 292.035211 530.602273 308.964789 530.602273 524.816901 530.602273 524.816901 570.647727 308.964789 570.647727"></polygon>
                    <polygon id="Stroke-24" stroke-opacity="0.8" stroke="#224CB2" stroke-width="3" stroke-linecap="round" stroke-linejoin="round" points="203.15493 725.823864 262.408451 725.823864 262.408451 620.704545 203.15493 620.704545"></polygon>
                    <path d="M215.852113,620.704545 L249.711268,620.704545 C261.350352,620.704545 270.873239,609.441761 270.873239,595.676136 C270.873239,581.910511 261.350352,570.647727 249.711268,570.647727 L215.852113,570.647727 C204.213028,570.647727 194.690141,581.910511 194.690141,595.676136 C194.690141,609.441761 204.213028,620.704545 215.852113,620.704545 Z" id="Stroke-25" stroke-opacity="0.8" stroke="#224CB2" stroke-width="3" stroke-linecap="round" stroke-linejoin="round"></path>
                    <path d="M275.105634,655.744318 L190.457746,655.744318" id="Stroke-26" stroke-opacity="0.8" stroke="#224CB2" stroke-width="3" stroke-linecap="round" stroke-linejoin="round"></path>
                    <polygon id="Stroke-27" stroke-opacity="0.8" stroke="#224CB2" stroke-width="3" stroke-linecap="round" stroke-linejoin="round" points="292.035211 875.994318 190.457746 875.994318 190.457746 725.823864 292.035211 725.823864 308.964789 725.823864 410.542254 725.823864 410.542254 875.994318 308.964789 875.994318"></polygon>
                    <polyline id="Stroke-28" stroke-opacity="0.8" stroke="#224CB2" stroke-width="3" stroke-linecap="round" stroke-linejoin="round" points="181.992958 765.869318 292.035211 765.869318 308.964789 765.869318 419.007042 765.869318"></polyline>
                    <path d="M279.338028,875.994318 L279.338028,825.9375 C279.338028,806.585534 266.073704,790.897727 249.711268,790.897727 C233.348831,790.897727 220.084507,806.585534 220.084507,825.9375 L220.084507,875.994318" id="Stroke-29" stroke-opacity="0.8" stroke="#224CB2" stroke-width="3" stroke-linecap="round" stroke-linejoin="round"></path>
                    <path d="M71.9507042,565.642045 L4.23239437,565.642045" id="Stroke-30" stroke-opacity="0.8" stroke="#224CB2" stroke-width="3" stroke-linecap="round" stroke-linejoin="round"></path>
                    <path d="M77.1582423,465.528409 L100.605707,465.528409 C108.156299,465.528409 114.276341,458.290193 114.276341,449.360057 L114.276341,431.639943 C114.276341,422.709807 108.156299,415.471591 100.605707,415.471591 L77.1582423,415.471591 C69.5991859,415.471591 63.4876085,422.709807 63.4876085,431.639943 L63.4876085,449.360057 C63.4876085,458.290193 69.5991859,465.528409 77.1582423,465.528409 Z" id="Stroke-31" stroke-opacity="0.8" stroke="#224CB2" stroke-width="3" stroke-linecap="round" stroke-linejoin="round"></path>
                    <path d="M4.23239437,445.505682 L63.4859155,445.505682" id="Stroke-32" stroke-opacity="0.8" stroke="#224CB2" stroke-width="3" stroke-linecap="round" stroke-linejoin="round"></path>
                    <path d="M114.274648,445.505682 L190.457746,445.505682" id="Stroke-33" stroke-opacity="0.8" stroke="#224CB2" stroke-width="3" stroke-linecap="round" stroke-linejoin="round"></path>
                    <path d="M88.8802817,365.414773 L88.8802817,415.471591" id="Stroke-34" stroke-opacity="0.8" stroke="#224CB2" stroke-width="3" stroke-linecap="round" stroke-linejoin="round"></path>
                    <path d="M200.674746,385.4375 L222.56469,385.4375 C228.210704,385.4375 232.78169,380.021352 232.78169,373.353784 L232.78169,337.453034 C232.78169,330.785466 228.210704,325.369318 222.56469,325.369318 L200.674746,325.369318 C195.028732,325.369318 190.457746,330.785466 190.457746,337.453034 L190.457746,373.353784 C190.457746,380.021352 195.028732,385.4375 200.674746,385.4375 Z" id="Stroke-35" stroke-opacity="0.8" stroke="#224CB2" stroke-width="3" stroke-linecap="round" stroke-linejoin="round"></path>
                    <path d="M207.387324,385.4375 L207.387324,435.494318" id="Stroke-36" stroke-opacity="0.8" stroke="#224CB2" stroke-width="3" stroke-linecap="round" stroke-linejoin="round"></path>
                    <path d="M275.105634,335.380682 L232.78169,335.380682" id="Stroke-38" stroke-opacity="0.8" stroke="#224CB2" stroke-width="3" stroke-linecap="round" stroke-linejoin="round"></path>
                    <path d="M300.5,5.00568182 L300.5,65.0738636" id="Stroke-44" stroke-opacity="0.8" stroke="#224CB2" stroke-width="3" stroke-linecap="round" stroke-linejoin="round"></path>
                </g>
                <text id="30" stroke-opacity="0.8" stroke="#224CB2" stroke-width="3" font-family="Poppins-Bold, Poppins" font-size="48" font-weight="bold" letter-spacing="0.034999989" fill="#224CB2" fill-opacity="0">
                    <tspan x="535" y="431">30</tspan>
                </text>
                <text id="Jaar" stroke-opacity="0.8" stroke="#224CB2" stroke-width="3" font-family="Poppins-Bold, Poppins" font-size="36" font-weight="bold" letter-spacing="0.0262499917" fill="#224CB2" fill-opacity="0">
                    <tspan x="519" y="466">Jaar</tspan>
                </text>
            </g>
        </g>
    </g>
</svg>
